<mxfile host="65bd71144e">
    <diagram name="Page-1" id="WSqZTGmcidIoSPxD35uY">
        <mxGraphModel dx="985" dy="768" grid="1" gridSize="10" guides="1" tooltips="1" connect="1" arrows="1" fold="1" page="1" pageScale="1" pageWidth="2080" pageHeight="1600" math="0" shadow="0">
            <root>
                <mxCell id="0"/>
                <mxCell id="1" parent="0"/>
                <mxCell id="0xOqt_RIQpGEpPyQNvjX-1" value="Code Palette&lt;div&gt;A&lt;/div&gt;&lt;div&gt;B&lt;/div&gt;&lt;div&gt;C&lt;/div&gt;&lt;div&gt;D&lt;/div&gt;&lt;div&gt;E&lt;/div&gt;&lt;div&gt;F&lt;/div&gt;&lt;div&gt;G&lt;br&gt;H&lt;/div&gt;&lt;div&gt;I&lt;/div&gt;" style="rounded=0;whiteSpace=wrap;html=1;" parent="1" vertex="1">
                    <mxGeometry x="320" y="440" width="120" height="160" as="geometry"/>
                </mxCell>
                <mxCell id="0xOqt_RIQpGEpPyQNvjX-2" value="Code Palette&lt;div&gt;A&lt;/div&gt;&lt;div&gt;B&lt;/div&gt;&lt;div&gt;C&lt;/div&gt;&lt;div&gt;D&lt;/div&gt;&lt;div&gt;E&lt;/div&gt;&lt;div&gt;F&lt;/div&gt;&lt;div&gt;G&lt;br&gt;H&lt;/div&gt;&lt;div&gt;I&lt;/div&gt;" style="rounded=0;whiteSpace=wrap;html=1;" parent="1" vertex="1">
                    <mxGeometry x="440" y="440" width="120" height="160" as="geometry"/>
                </mxCell>
                <mxCell id="0xOqt_RIQpGEpPyQNvjX-3" value="Code Palette&lt;div&gt;A&lt;/div&gt;&lt;div&gt;B&lt;/div&gt;&lt;div&gt;C&lt;/div&gt;&lt;div&gt;D&lt;/div&gt;&lt;div&gt;E&lt;/div&gt;&lt;div&gt;F&lt;/div&gt;&lt;div&gt;G&lt;br&gt;H&lt;/div&gt;&lt;div&gt;I&lt;/div&gt;" style="rounded=0;whiteSpace=wrap;html=1;" parent="1" vertex="1">
                    <mxGeometry x="560" y="440" width="120" height="160" as="geometry"/>
                </mxCell>
                <mxCell id="0xOqt_RIQpGEpPyQNvjX-4" value="Code Palette&lt;div&gt;A&lt;/div&gt;&lt;div&gt;B&lt;/div&gt;&lt;div&gt;C&lt;/div&gt;&lt;div&gt;D&lt;/div&gt;&lt;div&gt;E&lt;/div&gt;&lt;div&gt;F&lt;/div&gt;&lt;div&gt;G&lt;br&gt;H&lt;/div&gt;&lt;div&gt;I&lt;/div&gt;" style="rounded=0;whiteSpace=wrap;html=1;" parent="1" vertex="1">
                    <mxGeometry x="680" y="440" width="120" height="160" as="geometry"/>
                </mxCell>
                <mxCell id="0xOqt_RIQpGEpPyQNvjX-5" value="AJDSADASDASDAS" style="rounded=0;whiteSpace=wrap;html=1;" parent="1" vertex="1">
                    <mxGeometry x="320" y="400" width="120" height="40" as="geometry"/>
                </mxCell>
                <mxCell id="0xOqt_RIQpGEpPyQNvjX-6" value="AJDSADASDASDAS" style="rounded=0;whiteSpace=wrap;html=1;" parent="1" vertex="1">
                    <mxGeometry x="680" y="400" width="120" height="40" as="geometry"/>
                </mxCell>
                <mxCell id="0xOqt_RIQpGEpPyQNvjX-7" value="AJDSADASDASDAS" style="rounded=0;whiteSpace=wrap;html=1;" parent="1" vertex="1">
                    <mxGeometry x="440" y="400" width="120" height="40" as="geometry"/>
                </mxCell>
                <mxCell id="0xOqt_RIQpGEpPyQNvjX-8" value="AJDSADASDASDAS" style="rounded=0;whiteSpace=wrap;html=1;" parent="1" vertex="1">
                    <mxGeometry x="560" y="400" width="120" height="40" as="geometry"/>
                </mxCell>
                <mxCell id="0xOqt_RIQpGEpPyQNvjX-9" value="&lt;div&gt;16Steps&lt;/div&gt;Score" style="rounded=0;whiteSpace=wrap;html=1;" parent="1" vertex="1">
                    <mxGeometry x="320" y="200" width="120" height="200" as="geometry"/>
                </mxCell>
                <mxCell id="0xOqt_RIQpGEpPyQNvjX-10" value="Auto Show&lt;div&gt;Score&lt;/div&gt;" style="rounded=0;whiteSpace=wrap;html=1;" parent="1" vertex="1">
                    <mxGeometry x="440" y="200" width="120" height="200" as="geometry"/>
                </mxCell>
                <mxCell id="0xOqt_RIQpGEpPyQNvjX-11" value="Auto Show&lt;div&gt;Score&lt;/div&gt;" style="rounded=0;whiteSpace=wrap;html=1;" parent="1" vertex="1">
                    <mxGeometry x="560" y="200" width="120" height="200" as="geometry"/>
                </mxCell>
                <mxCell id="0xOqt_RIQpGEpPyQNvjX-12" value="Auto Show&lt;div&gt;Score&lt;/div&gt;" style="rounded=0;whiteSpace=wrap;html=1;" parent="1" vertex="1">
                    <mxGeometry x="680" y="200" width="120" height="200" as="geometry"/>
                </mxCell>
            </root>
        </mxGraphModel>
    </diagram>
</mxfile>